# xmcd
#
# Track frame offsets:
#	150
#	17889
#	32957
#	50580
#	66822
#	83552
#	97490
#	112400
#	127171
#	143497
#	159878
#
# Disc length: 2339 seconds
#
# Revision: 1
# Processed by: cddbd v1.5.2PL0 Copyright (c) Steve Scherf et al.
# Submitted via: EZCDAudioConverter 2.3.2.1
#
DISCID=9d09210b
DTITLE=Garrick Alden - Stripes and Spots
DYEAR=2005
DGENRE=Country
TTITLE0=Garrick Alden - A Night to Remember
TTITLE1=Garrick Alden - A Night to for Get
TTITLE2=Garrick Alden - Im in Love with the Mother of Another Mans Child
TTITLE3=Garrick Alden - Beaches of Marseiles
TTITLE4=Garrick Alden - So in Love
TTITLE5=Garrick Alden - Gronskys Party
TTITLE6=Garrick Alden - Alligator Alice
TTITLE7=Garrick Alden - Stripes and Spots
TTITLE8=Garrick Alden - The Dance
TTITLE9=Garrick Alden - Sunshine Man
TTITLE10=Garrick Alden - Who Let the Hound Dogs Out
EXTD=
EXTT0=
EXTT1=
EXTT2=
EXTT3=
EXTT4=
EXTT5=
EXTT6=
EXTT7=
EXTT8=
EXTT9=
EXTT10=
PLAYORDER=
